# Produced with JavaView v.5.03.003
# JavaView is © 1997-2020, www.javaview.de
# by Konrad Polthier, Ulrich Reitebuch, Sunil K. Yadav, Eric Zimmermann
#     File Format = Wavefront OBJ
#     Geometry    = Cow_88
#     Date        = Sat May 13 15:05:00 CEST 2023
#
#     Number of Vertices = 46
#     Number of Elements = 88
#     Additional: Vertex Normals
#
# End of Header
# Vertex List
# Number of Vertexs = 46
v 0.191914 -0.0996816 -0.0402845
v -0.190233 -0.129704 -0.0691995
v -0.427882 -0.0990886 -0.0727981
v 0.134566 -0.0917393 -0.0903185
v 0.344883 0.132627 -0.0517362
v 0.171462 0.216082 -0.030108
v 0.179962 0.0436984 -0.10159
v -0.23048 0.178526 -0.0962909
v 0.0479619 -0.0936443 -0.0683862
v -0.148157 -0.0401693 -0.182382
v -0.109085 0.214627 0.0176071
v -0.365642 0.199738 -0.108855
v -0.288324 -0.0120733 -0.1313
v -0.447805 0.230374 0.0164932
v -0.444669 0.162813 -0.0739868
v -0.438659 0.0884466 -3.95395E-5
v 0.4161 0.249829 -0.0596237
v 0.38888 0.291239 -0.0110618
v 0.51899 0.151989 -0.0266674
v 0.341468 0.260589 -0.0600818
v 0.317846 0.296643 -0.00325761
v 0.128998 -0.0688281 0.113114
v 0.177861 -0.107912 0.0501942
v 0.0444817 0.0337493 0.126681
v 0.187264 0.221809 0.0244741
v 0.337091 0.135978 0.0512445
v 0.174036 0.0488145 0.121748
v 0.0453024 -0.101829 0.0578834
v -0.157622 -0.0494842 0.186436
v -0.191849 -0.129786 0.0695104
v -0.23245 0.198079 0.090871
v -0.28727 0.00737601 0.139115
v -0.387119 0.184413 0.108997
v -0.425439 -0.101473 0.0747139
v 0.416845 0.251485 0.059621
v 0.51153 0.150727 0.0312177
v 0.348125 0.265361 0.0604206
v -0.31117 -0.150117 -0.0483912
v -0.332856 -0.150027 0.0637211
v 0.121258 -0.297362 -0.067173
v 0.106229 -0.215129 -0.091602
v -0.402142 -0.250815 -0.100064
v 0.108084 -0.243484 0.0907764
v -0.399563 -0.225755 0.0903675
v 0.380386 0.310767 -0.087871
v 0.368281 0.307904 0.0884961
# Vertex Normal List
# Number of Vertex Normals = 46
vn 0.7552676 -0.5623475 -0.3366544
vn 0.04634765 -0.92848146 -0.36847532
vn -0.8928385 -0.42641655 0.14494267
vn 0.3572663 -0.9286974 0.0994077
vn 0.34615332 -0.38997367 -0.8532868
vn 0.01578863 0.61568624 -0.7878332
vn 0.17826113 0.15729474 -0.9713297
vn 0.056870688 0.49942094 -0.86449087
vn 0.3039137 -0.93543494 -0.18054883
vn 0.06804082 -0.110814765 -0.9915092
vn 0.065800294 0.9534028 0.2944374
vn -0.06158719 0.6950705 -0.7162988
vn -0.15061353 -0.11059218 -0.98238736
vn -0.5231014 0.83112615 0.18866442
vn -0.6380756 0.047021884 -0.76853657
vn -0.9978205 -0.064326376 0.014710936
vn 0.27909315 0.165163 -0.9459536
vn 0.66565603 0.7462141 0.008160826
vn 0.6871303 -0.0042924965 -0.72652155
vn -0.23178259 0.3337668 -0.9137158
vn -0.45754007 0.88905543 -0.01541108
vn 0.3431129 -0.17519729 0.9228106
vn 0.63463736 -0.7194051 0.28229722
vn 0.06784479 0.2981912 0.95209193
vn -0.09645642 0.6276709 0.7724801
vn 0.4950339 -0.36421505 0.7888529
vn 0.27649653 0.11260513 0.95439494
vn 0.06810468 -0.9751216 0.21094933
vn 0.056495294 -0.15885411 0.98568434
vn 0.025986083 -0.91362923 0.40571713
vn 0.08341129 0.56035197 0.8240438
vn -0.13365214 -0.11440034 0.9844032
vn -0.4043634 0.17427263 0.89784145
vn -0.95462734 -0.18415959 0.23403406
vn 0.33825314 0.2511233 0.9069299
vn 0.6211408 -0.4687363 0.6280688
vn -0.16229822 0.2363348 0.95802146
vn 0.123069584 -0.98043805 -0.15360701
vn -0.03516294 -0.96203613 0.27064738
vn -0.18260887 0.031715173 0.982674
vn 0.5637973 -0.013709062 0.8257994
vn -0.27396268 -0.1939234 -0.94198626
vn -0.24140964 -0.62714005 0.74055165
vn -0.29895258 -0.17548901 0.93799305
vn 0.0056416574 0.8454257 -0.5340632
vn 0.11271414 0.91199094 0.3944211
# Face List
# Number of Faces = 88
f  1//1 23//23 4//4
f  23//23 28//28 4//4
f  28//28 30//30 2//2
f  38//38 42//42 13//13
f  42//42 38//38 3//3
f  4//4 9//9 40//40
f  1//1 7//7 5//5
f  20//20 6//6 25//25
f  4//4 7//7 1//1
f  20//20 5//5 6//6
f  4//4 41//41 7//7
f  9//9 4//4 28//28
f  9//9 7//7 41//41
f  7//7 10//10 8//8
f  6//6 8//8 11//11
f  2//2 10//10 9//9
f  13//13 12//12 8//8
f  18//18 19//19 17//17
f  28//28 23//23 43//43
f  23//23 22//22 43//43
f  43//43 24//24 28//28
f  25//25 37//37 21//21
f  26//26 23//23 1//1
f  26//26 27//27 23//23
f  22//22 23//23 27//27
f  31//31 29//29 24//24
f  22//22 27//27 24//24
f  11//11 25//25 6//6
f  24//24 27//27 25//25
f  11//11 31//31 24//24
f  29//29 30//30 28//28
f  33//33 32//32 31//31
f  14//14 33//33 31//31
f  14//14 34//34 33//33
f  39//39 32//32 44//44
f  36//36 18//18 35//35
f  35//35 18//18 37//37
f  26//26 36//36 35//35
f  5//5 19//19 36//36
f  2//2 9//9 28//28
f  40//40 9//9 41//41
f  40//40 41//41 4//4
f  6//6 5//5 7//7
f  25//25 21//21 20//20
f  1//1 5//5 26//26
f  10//10 7//7 9//9
f  8//8 6//6 7//7
f  8//8 10//10 13//13
f  10//10 2//2 13//13
f  11//11 8//8 12//12
f  11//11 12//12 14//14
f  12//12 13//13 15//15
f  14//14 12//12 15//15
f  15//15 42//42 3//3
f  15//15 3//3 16//16
f  15//15 13//13 42//42
f  20//20 18//18 17//17
f  5//5 17//17 19//19
f  5//5 20//20 17//17
f  39//39 44//44 34//34
f  24//24 43//43 22//22
f  37//37 25//25 26//26
f  27//27 26//26 25//25
f  25//25 11//11 24//24
f  28//28 24//24 29//29
f  29//29 31//31 32//32
f  30//30 29//29 32//32
f  31//31 11//11 14//14
f  44//44 33//33 34//34
f  34//34 14//14 16//16
f  32//32 33//33 44//44
f  35//35 37//37 26//26
f  19//19 18//18 36//36
f  36//36 26//26 5//5
f  39//39 34//34 3//3
f  38//38 2//2 30//30
f  2//2 38//38 13//13
f  39//39 3//3 38//38
f  39//39 30//30 32//32
f  38//38 30//30 39//39
f  16//16 3//3 34//34
f  16//16 14//14 15//15
f  21//21 18//18 45//45
f  45//45 18//18 20//20
f  21//21 45//45 20//20
f  37//37 18//18 46//46
f  46//46 21//21 37//37
f  46//46 18//18 21//21
