# Produced with JavaView v.5.03.003
# JavaView is © 1997-2020, www.javaview.de
# by Konrad Polthier, Ulrich Reitebuch, Sunil K. Yadav, Eric Zimmermann
#     File Format = Wavefront OBJ
#     Geometry    = sample
#     Date        = Mon May 15 19:35:16 CEST 2023
#
#     Number of Vertices = 8
#     Number of Elements = 12
#     Additional: Vertex Normals
#
# End of Header
# Vertex List
# Number of Vertexs = 8
v 1.0 1.0 1.0
v 1.0 1.0 -1.0
v 1.0 -1.0 1.0
v 1.0 -1.0 -1.0
v -1.0 1.0 1.0
v -1.0 1.0 -1.0
v -1.0 -1.0 1.0
v -1.0 -1.0 -1.0
# Vertex Normal List
# Number of Vertex Normals = 8
vn 0.57735026 -0.57735026 0.57735026
vn 0.6666667 -0.6666667 0.33333334
vn 0.6666667 -0.33333334 0.6666667
vn 0.33333334 -0.6666667 0.6666667
vn 0.33333334 -0.6666667 0.6666667
vn 0.6666667 -0.33333334 0.6666667
vn 0.6666667 -0.6666667 0.33333334
vn 0.57735026 -0.57735026 0.57735026
# Face List
# Number of Faces = 12
f  2//2 1//1 3//3
f  3//3 4//4 2//2
f  6//6 5//5 7//7
f  7//7 8//8 6//6
f  2//2 1//1 5//5
f  5//5 6//6 2//2
f  4//4 3//3 7//7
f  7//7 8//8 4//4
f  3//3 1//1 5//5
f  5//5 7//7 3//3
f  4//4 2//2 6//6
f  6//6 8//8 4//4
